<?xml version="1.0" encoding="utf-8"?>
<!-- Generator: Adobe Illustrator 27.1.1, SVG Export Plug-In . SVG Version: 6.00 Build 0)  -->
<svg version="1.1" id="Layer_1" xmlns="http://www.w3.org/2000/svg" xmlns:xlink="http://www.w3.org/1999/xlink" x="0px" y="0px"
	 viewBox="0 0 42.4 40" enable-background="new 0 0 42.4 40" xml:space="preserve">
<path d="M33.5,13.8l-2.2-4.7l-4.7-2.2l4.7-2.2L33.5,0l2.2,4.7l4.7,2.2l-4.7,2.2L33.5,13.8z M37.7,28.2l-1.5-3.1l-3.2-1.5l3.2-1.5
	l1.5-3.1l1.5,3.1l3.2,1.5l-3.2,1.5L37.7,28.2z M11.6,40l-0.5-4.6c-0.5-0.1-0.9-0.2-1.4-0.5c-0.5-0.2-0.9-0.5-1.3-0.8l-3.9,1.7
	L0,28.6l3.8-2.5c-0.2-0.6-0.2-1.1-0.2-1.5s0.1-0.9,0.2-1.5L0,20.6l4.4-7.2L8.3,15c0.4-0.3,0.8-0.6,1.3-0.9s1-0.4,1.4-0.5l0.5-4.6H20
	l0.5,4.6c0.5,0.1,0.9,0.2,1.5,0.5c0.5,0.2,0.9,0.5,1.3,0.9l3.9-1.6l4.4,7.2l-3.8,2.5c0.2,0.6,0.2,1.1,0.2,1.5s-0.1,0.9-0.2,1.5
	l3.8,2.5l-4.4,7.2l-3.9-1.7c-0.4,0.3-0.8,0.6-1.3,0.8c-0.5,0.2-1,0.4-1.5,0.5L20,40H11.6z M15.8,30.3c1.7,0,3-0.5,4.1-1.6
	c1.1-1.1,1.6-2.5,1.6-4.1c0-1.7-0.5-3-1.6-4.1c-1.1-1.1-2.5-1.6-4.1-1.6c-1.7,0-3,0.5-4.1,1.6c-1.1,1.1-1.6,2.5-1.6,4.1
	c0,1.7,0.5,3,1.6,4.1C12.7,29.8,14.1,30.3,15.8,30.3z M15.8,27.3c-0.8,0-1.5-0.3-2-0.8s-0.8-1.2-0.8-2c0-0.8,0.3-1.5,0.8-2
	s1.2-0.8,2-0.8c0.8,0,1.5,0.3,2,0.8c0.5,0.5,0.8,1.2,0.8,2c0,0.8-0.3,1.5-0.8,2C17.2,27,16.5,27.3,15.8,27.3z M14.1,37h3.4l0.4-3.8
	c1-0.2,1.8-0.6,2.6-1s1.5-1,2.2-1.7L26,32l1.7-2.6l-3.1-2.2c0.4-0.8,0.5-1.7,0.5-2.6c0-0.9-0.2-1.8-0.5-2.6l3.1-2.2L26,17.1
	l-3.2,1.5c-0.7-0.7-1.4-1.3-2.2-1.7c-0.8-0.4-1.7-0.8-2.6-1l-0.4-3.8h-3.4l-0.4,3.8c-1,0.2-1.9,0.6-2.6,1c-0.8,0.4-1.5,1-2.2,1.7
	l-3.3-1.5l-1.6,2.6L7,22c-0.4,0.8-0.6,1.7-0.6,2.6c0,0.9,0.2,1.8,0.6,2.6l-3.1,2.2L5.6,32l3.2-1.5c0.7,0.7,1.4,1.3,2.2,1.7
	c0.8,0.4,1.7,0.8,2.7,1L14.1,37z"/>
</svg>
