<?xml version="1.0" encoding="utf-8"?>
<!-- Generator: Adobe Illustrator 27.1.1, SVG Export Plug-In . SVG Version: 6.00 Build 0)  -->
<svg version="1.1" id="Layer_1" xmlns="http://www.w3.org/2000/svg" xmlns:xlink="http://www.w3.org/1999/xlink" x="0px" y="0px"
	 viewBox="0 0 32.7 32" enable-background="new 0 0 32.7 32" xml:space="preserve">
<path d="M14.4,32c-0.6,0-1-0.2-1.4-0.6c-0.4-0.4-0.6-0.9-0.6-1.4V18L0.4,2.8c-0.5-0.6-0.5-1.2-0.2-1.8C0.5,0.3,1.1,0,1.8,0H31
	c0.7,0,1.2,0.3,1.5,0.9c0.3,0.6,0.3,1.2-0.2,1.8L20.4,18v12c0,0.6-0.2,1-0.6,1.4c-0.4,0.4-0.9,0.6-1.4,0.6H14.4z M16.4,18.2L28.4,3
	h-24L16.4,18.2z"/>
</svg>
