<?xml version="1.0" encoding="utf-8"?>
<!-- Generator: Adobe Illustrator 27.1.1, SVG Export Plug-In . SVG Version: 6.00 Build 0)  -->
<svg version="1.1" id="Layer_1" xmlns="http://www.w3.org/2000/svg" xmlns:xlink="http://www.w3.org/1999/xlink" x="0px" y="0px"
	 viewBox="0 0 36 36" enable-background="new 0 0 36 36" xml:space="preserve">
<path d="M2,36c-0.4,0-0.8-0.1-1.1-0.5c-0.3-0.3-0.4-0.7-0.4-1.1c0-0.4,0.2-0.7,0.4-1C1.2,33.1,1.6,33,2,33h2V19.5H1.5
	c-0.4,0-0.8-0.1-1.1-0.5C0.2,18.8,0,18.4,0,18c0-0.4,0.2-0.7,0.4-1c0.3-0.3,0.7-0.4,1.1-0.4H4V3H2C1.6,3,1.2,2.8,0.9,2.6
	C0.7,2.2,0.5,1.9,0.5,1.5c0-0.4,0.2-0.7,0.4-1C1.2,0.1,1.6,0,2,0h32c0.4,0,0.8,0.1,1.1,0.4c0.3,0.3,0.4,0.6,0.4,1.1
	c0,0.4-0.1,0.8-0.4,1.1C34.8,2.8,34.4,3,34,3h-2v13.5h2.5c0.4,0,0.8,0.1,1.1,0.4c0.3,0.3,0.4,0.6,0.4,1.1c0,0.4-0.1,0.8-0.4,1
	c-0.3,0.3-0.6,0.5-1.1,0.5H32V33h2c0.4,0,0.8,0.1,1.1,0.4s0.4,0.6,0.4,1.1c0,0.4-0.1,0.8-0.4,1C34.8,35.9,34.4,36,34,36H2z M7,33h22
	V19.5c-0.4,0-0.8-0.1-1-0.5c-0.3-0.3-0.5-0.7-0.5-1.1c0-0.4,0.1-0.7,0.5-1c0.3-0.3,0.7-0.4,1-0.4V3H7v13.5c0.4,0,0.8,0.1,1.1,0.4
	c0.3,0.3,0.4,0.6,0.4,1.1c0,0.4-0.1,0.8-0.4,1c-0.3,0.3-0.6,0.5-1.1,0.5V33z M18,25.4c1.5,0,2.8-0.5,3.9-1.6
	c1.1-1.1,1.6-2.3,1.6-3.8c0-1.2-0.3-2.2-1-3c-0.7-0.8-2.2-2.6-4.5-5.2c-2.3,2.6-3.8,4.4-4.5,5.2c-0.7,0.9-1,1.9-1,3.1
	c0,1.5,0.5,2.8,1.6,3.8C15.2,24.8,16.5,25.4,18,25.4z M7,33V3V33z"/>
</svg>
