<?xml version="1.0" encoding="utf-8"?>
<!-- Generator: Adobe Illustrator 27.1.1, SVG Export Plug-In . SVG Version: 6.00 Build 0)  -->
<svg version="1.1" id="Layer_1" xmlns="http://www.w3.org/2000/svg" xmlns:xlink="http://www.w3.org/1999/xlink" x="0px" y="0px"
	 viewBox="0 0 32 43.8" enable-background="new 0 0 32 43.8" xml:space="preserve">
<path d="M1.8,29.3c-0.7-1.2-1.1-2.4-1.4-3.6C0.1,24.5,0,23.2,0,22c0-4.4,1.6-8.1,4.7-11.3S11.6,5.9,16,5.9h2.1l-4-4l2-2l7.4,7.4
	l-7.5,7.4l-2-2l4-3.9h-2c-3.6,0-6.6,1.3-9.2,3.8S3,18.4,3,22c0,1,0.1,1.9,0.3,2.8c0.2,0.9,0.4,1.7,0.7,2.5L1.8,29.3z M15.8,43.8
	l-7.5-7.5l7.5-7.4l2,2l-4,4H16c3.6,0,6.6-1.3,9.2-3.8c2.6-2.6,3.8-5.6,3.8-9.2c0-1-0.1-1.9-0.2-2.8s-0.4-1.7-0.8-2.4l2.2-2.2
	c0.7,1.2,1.1,2.4,1.4,3.6c0.3,1.2,0.4,2.5,0.4,3.7c0,4.4-1.6,8.1-4.7,11.3c-3.2,3.2-6.9,4.7-11.3,4.7h-2.2l4,4L15.8,43.8z"/>
</svg>
