<?xml version="1.0" encoding="utf-8"?>
<!-- Generator: Adobe Illustrator 27.1.1, SVG Export Plug-In . SVG Version: 6.00 Build 0)  -->
<svg version="1.1" id="Layer_1" xmlns="http://www.w3.org/2000/svg" xmlns:xlink="http://www.w3.org/1999/xlink" x="0px" y="0px"
	 viewBox="0 0 32 40" enable-background="new 0 0 32 40" xml:space="preserve">
<path d="M7.8,37h16.4v-6.3c0-2.3-0.8-4.3-2.4-6c-1.6-1.7-3.5-2.5-5.8-2.5s-4.2,0.8-5.8,2.5c-1.6,1.7-2.4,3.7-2.4,6V37z M16,17.9
	c2.3,0,4.2-0.8,5.8-2.5c1.6-1.7,2.4-3.7,2.4-6.1V3H7.8v6.3c0,2.4,0.8,4.4,2.4,6.1C11.8,17.1,13.7,17.9,16,17.9z M0,40v-3h4.8v-6.3
	c0-2.3,0.6-4.5,1.8-6.4s2.9-3.4,5.1-4.2c-2.2-0.9-3.9-2.3-5.1-4.2s-1.8-4.1-1.8-6.4V3H0V0h32v3h-4.8v6.3c0,2.3-0.6,4.5-1.8,6.4
	s-2.9,3.4-5.1,4.2c2.2,0.9,3.9,2.3,5.1,4.2s1.8,4.1,1.8,6.4V37H32v3H0z"/>
</svg>
