<?xml version="1.0" encoding="utf-8"?>
<!-- Generator: Adobe Illustrator 27.1.1, SVG Export Plug-In . SVG Version: 6.00 Build 0)  -->
<svg version="1.1" id="Layer_1" xmlns="http://www.w3.org/2000/svg" xmlns:xlink="http://www.w3.org/1999/xlink" x="0px" y="0px"
	 viewBox="0 0 46 32" enable-background="new 0 0 46 32" xml:space="preserve">
<path d="M5.5,32c-1.5,0-2.8-0.5-3.9-1.6S0,28,0,26.5V13c0-0.8,0.3-1.5,0.9-2.1S2.2,10,3,10h11.5V0h10.4c1.5,0,2.8,0.5,3.9,1.6
	s1.6,2.4,1.7,3.9v9h3v-3c0-0.4,0.1-0.8,0.2-1.1c0.2-0.4,0.4-0.7,0.6-1l3.5-3.6L46,21.5h-9.7c-0.8,0-1.5-0.3-2.1-0.9
	s-0.9-1.3-0.9-2.1v-1h-3v4.8c0.6,0.5,1.1,1.2,1.5,1.9c0.4,0.7,0.5,1.5,0.5,2.4c0,1.5-0.5,2.8-1.6,3.9S28.4,32,26.9,32
	c-1.2,0-2.3-0.4-3.3-1.1c-1-0.7-1.6-1.7-2-2.8H10.8c-0.4,1.2-1,2.1-2,2.8S6.7,32,5.5,32z M5.5,29c0.7,0,1.3-0.2,1.8-0.7
	C7.8,27.8,8,27.2,8,26.5s-0.2-1.3-0.7-1.8C6.8,24.2,6.2,24,5.5,24s-1.3,0.2-1.8,0.7C3.2,25.2,3,25.8,3,26.5s0.2,1.3,0.7,1.8
	S4.8,29,5.5,29z M26.9,29c0.7,0,1.3-0.2,1.8-0.7s0.7-1.1,0.7-1.8s-0.2-1.3-0.7-1.8c-0.5-0.5-1.1-0.7-1.8-0.7c-0.7,0-1.3,0.2-1.8,0.7
	c-0.5,0.5-0.7,1.1-0.7,1.8s0.2,1.3,0.7,1.8S26.2,29,26.9,29z M14.5,25V13H3v8.6c0.4-0.2,0.8-0.4,1.2-0.5C4.6,21.1,5.1,21,5.5,21
	c1.2,0,2.3,0.4,3.3,1.1s1.6,1.7,1.9,2.9H14.5z M17.5,25h4c0.3-1.2,1-2.1,2-2.9s2.1-1.1,3.3-1.1h0.5v-3.5h-9.9V25z M41,18.5l-4.2-7.7
	c-0.2,0.1-0.3,0.2-0.4,0.4c-0.1,0.2-0.1,0.3-0.1,0.5v6.8H41z M17.5,14.5h9.9v-9c0-0.7-0.2-1.3-0.7-1.8C26.1,3.2,25.6,3,24.9,3h-7.4
	V14.5z M14.5,25v-4v0.6V13V25z M17.5,25v-7.5V25z"/>
</svg>
